<svg width="18" height="18" viewBox="0 0 18 18" fill="none" xmlns="http://www.w3.org/2000/svg">
<path d="M17.008 7.776C16.9025 7.63262 16.7649 7.51596 16.6061 7.43538C16.4474 7.3548 16.272 7.31254 16.094 7.312H15.188V6.188C15.188 5.88964 15.0695 5.60349 14.8585 5.39251C14.6475 5.18153 14.3614 5.063 14.063 5.063H9.18799L7.23299 3.6C7.03954 3.45307 6.8029 3.37431 6.55999 3.376H2.81199C2.51396 3.37627 2.22822 3.49478 2.01749 3.70551C1.80676 3.91624 1.68825 4.20198 1.68799 4.5V14.625C1.68691 14.6992 1.70073 14.7729 1.72864 14.8417C1.75656 14.9105 1.79799 14.973 1.85048 15.0255C1.90298 15.078 1.96547 15.1194 2.03427 15.1473C2.10306 15.1753 2.17675 15.1891 2.25099 15.188H14.625C14.7434 15.1878 14.8587 15.1504 14.9546 15.0809C15.0504 15.0114 15.122 14.9135 15.159 14.801L17.159 8.801C17.2161 8.6303 17.2322 8.44854 17.2059 8.27047C17.1797 8.09239 17.1119 7.92299 17.008 7.776ZM6.55999 4.5L8.51499 5.96301C8.70885 6.11071 8.94627 6.18985 9.18999 6.188H14.063V7.313H4.90798C4.67197 7.31241 4.44175 7.38606 4.2499 7.52353C4.05805 7.661 3.9143 7.85533 3.83898 8.079L2.81199 11.159V4.5H6.55999Z" fill="#9D2AF2"/>
</svg>
